<svg xmlns="http://www.w3.org/2000/svg" x="0px" y="0px"
width="140" height="140"
viewBox="0 0 172 172"
style=" fill:#696773;"><g fill="none" fill-rule="nonzero" stroke="none" stroke-width="1" stroke-linecap="butt" stroke-linejoin="miter" stroke-miterlimit="10" stroke-dasharray="" stroke-dashoffset="0" font-family="none" font-weight="none" font-size="none" text-anchor="none" style="mix-blend-mode: normal"><path d="M0,172v-172h172v172z" fill="none"></path><g fill="#696773"><path d="M86,15.05c-18.48609,0 -35.33104,7.09555 -47.95928,18.69072l-5.79072,-5.79072l-4.3,19.35l19.35,-4.3l-6.21484,-6.21484c11.85055,-10.82306 27.59137,-17.43516 44.91484,-17.43516c36.83499,0 66.65,29.81501 66.65,66.65c0,36.83499 -29.81501,66.65 -66.65,66.65c-36.83499,0 -66.65,-29.81501 -66.65,-66.65c0,-6.8073 1.01726,-13.36713 2.91006,-19.54736c0.24123,-0.73912 0.06467,-1.55089 -0.46177,-2.12304c-0.52643,-0.57215 -1.32072,-0.81555 -2.07733,-0.63657c-0.75661,0.17898 -1.35766,0.75246 -1.57194,1.49984c-2.0159,6.58217 -3.09902,13.57062 -3.09902,20.80713c0,39.15891 31.79109,70.95 70.95,70.95c39.15891,0 70.95,-31.79109 70.95,-70.95c0,-39.15891 -31.79109,-70.95 -70.95,-70.95zM86,23.65c-2.37482,0 -4.3,1.92518 -4.3,4.3c0,2.37482 1.92518,4.3 4.3,4.3c2.37482,0 4.3,-1.92518 4.3,-4.3c0,-2.37482 -1.92518,-4.3 -4.3,-4.3zM70.99199,27.77783c-0.05042,-0.00037 -0.10085,0.00103 -0.15117,0.0042c-0.1434,0.00956 -0.28549,0.03347 -0.42412,0.07139c-1.14674,0.3074 -1.82727,1.4861 -1.52012,2.63291c0.3074,1.14674 1.4861,1.82727 2.63291,1.52012c1.14674,-0.3074 1.82727,-1.4861 1.52012,-2.63291c-0.24917,-0.93397 -1.09102,-1.58683 -2.05762,-1.5957zM101.00381,27.78203c-0.9666,0.00887 -1.80845,0.66173 -2.05762,1.5957c-0.30715,1.14681 0.37338,2.32551 1.52012,2.63291c1.14681,0.30715 2.32551,-0.37338 2.63291,-1.52012c0.14877,-0.55131 0.07212,-1.13915 -0.21305,-1.63387c-0.28517,-0.49472 -0.75543,-0.85567 -1.30706,-1.00324c-0.18766,-0.04966 -0.38119,-0.07367 -0.57529,-0.07139zM56.92041,33.57695c-0.36043,0.00914 -0.71277,0.10878 -1.02461,0.28974c-1.02669,0.59424 -1.37809,1.90775 -0.78526,2.93526c0.59424,1.02669 1.90775,1.37809 2.93526,0.78525c1.02822,-0.5928 1.38158,-1.90665 0.78945,-2.93525c-0.39336,-0.68186 -1.1279,-1.09423 -1.91484,-1.075zM114.92002,33.58535c-0.73194,0.0331 -1.39664,0.43667 -1.76367,1.0708c-0.28569,0.49435 -0.36302,1.08204 -0.21492,1.63346c0.1481,0.55142 0.50945,1.02129 1.00437,1.30599c1.0286,0.59213 2.34245,0.23876 2.93525,-0.78945c0.59284,-1.0275 0.24144,-2.34101 -0.78525,-2.93526c-0.35651,-0.20578 -0.7646,-0.30488 -1.17578,-0.28555zM86,36.55c-1.18741,0 -2.15,0.96259 -2.15,2.15c0,1.18741 0.96259,2.15 2.15,2.15c1.18741,0 2.15,-0.96259 2.15,-2.15c0,-1.18741 -0.96259,-2.15 -2.15,-2.15zM127.07676,42.80264c-0.5818,-0.00894 -1.14238,0.21833 -1.55371,0.62988c-0.83941,0.83959 -0.83941,2.20064 0,3.04023c0.83959,0.83941 2.20065,0.83941 3.04024,0c0.83941,-0.83959 0.83941,-2.20064 0,-3.04023c-0.39487,-0.39509 -0.928,-0.621 -1.48652,-0.62988zM136.21426,54.825c-0.36006,0.00786 -0.71238,0.10605 -1.02461,0.28555c-0.49421,0.2854 -0.85467,0.75558 -1.00197,1.30695c-0.14729,0.55136 -0.06933,1.13867 0.21671,1.63251c0.59424,1.02669 1.90775,1.37809 2.93525,0.78525c1.02822,-0.5928 1.38158,-1.90665 0.78945,-2.93525c-0.39336,-0.68186 -1.1279,-1.09423 -1.91484,-1.075zM68.53965,64.70996c-7.45835,0 -12.67324,4.739 -12.67324,11.53945v0.10078h6.09726v-0.10078c0,-3.70445 2.56891,-6.20225 6.37441,-6.20225c3.5776,0 6.19805,2.31857 6.19805,5.51777c0,2.56925 -1.2337,4.45903 -6.19805,9.49863l-12.11894,12.39609v4.51416h25.2457v-5.51778h-16.32656v-0.42832l7.60899,-7.63418c6.17265,-6.0974 8.16328,-9.32314 8.16328,-13.22754c0,-6.0716 -5.1899,-10.45606 -12.3709,-10.45606zM102.60371,65.62119c-6.42635,9.675 -11.54039,17.75803 -14.81484,23.78018v5.79492h17.7627v6.78174h6.22324v-6.77754h4.91309v-5.49258h-4.91309v-24.08672zM142.08477,68.8252c-0.05042,-0.00037 -0.10085,0.00103 -0.15117,0.0042c-0.1434,0.00956 -0.28549,0.03347 -0.42412,0.07139c-1.14674,0.3074 -1.82727,1.4861 -1.52012,2.63291c0.3074,1.14674 1.4861,1.82727 2.63291,1.52012c1.14674,-0.3074 1.82727,-1.4861 1.52012,-2.63291c-0.24917,-0.93397 -1.09102,-1.58683 -2.05762,-1.5957zM29.90684,68.82939c-0.9666,0.00887 -1.80844,0.66173 -2.05762,1.5957c-0.30715,1.14681 0.37338,2.32551 1.52012,2.63291c1.14681,0.30715 2.32551,-0.37338 2.63291,-1.52012c0.14877,-0.55131 0.07212,-1.13915 -0.21306,-1.63387c-0.28517,-0.49472 -0.75544,-0.85567 -1.30706,-1.00324c-0.18766,-0.04966 -0.38119,-0.07367 -0.57529,-0.07139zM105.29961,70.90801h0.35274v18.94688h-11.8418v-0.37793c4.23335,-7.45835 8.01251,-13.4283 11.48906,-18.56895zM27.95,81.7c-2.37482,0 -4.3,1.92518 -4.3,4.3c0,2.37482 1.92518,4.3 4.3,4.3c2.37482,0 4.3,-1.92518 4.3,-4.3c0,-2.37482 -1.92518,-4.3 -4.3,-4.3zM144.05,81.7c-2.37482,0 -4.3,1.92518 -4.3,4.3c0,2.37482 1.92518,4.3 4.3,4.3c2.37482,0 4.3,-1.92518 4.3,-4.3c0,-2.37482 -1.92518,-4.3 -4.3,-4.3zM38.7,83.85c-1.18741,0 -2.15,0.96259 -2.15,2.15c0,1.18741 0.96259,2.15 2.15,2.15c1.18741,0 2.15,-0.96259 2.15,-2.15c0,-1.18741 -0.96259,-2.15 -2.15,-2.15zM133.3,83.85c-1.18741,0 -2.15,0.96259 -2.15,2.15c0,1.18741 0.96259,2.15 2.15,2.15c1.18741,0 2.15,-0.96259 2.15,-2.15c0,-1.18741 -0.96259,-2.15 -2.15,-2.15zM29.94463,98.87061c-0.05042,-0.00037 -0.10085,0.00103 -0.15117,0.0042c-0.1434,0.00956 -0.28549,0.03347 -0.42412,0.07139c-1.14674,0.3074 -1.82727,1.4861 -1.52012,2.63291c0.3074,1.14674 1.4861,1.82727 2.63291,1.52012c1.14674,-0.3074 1.82727,-1.4861 1.52012,-2.63291c-0.24917,-0.93398 -1.09102,-1.58684 -2.05762,-1.5957zM142.04697,98.8832c-0.96503,0.01074 -1.80466,0.66322 -2.05342,1.5957c-0.30715,1.14681 0.37338,2.32551 1.52012,2.63291c1.14681,0.30715 2.32551,-0.37338 2.63291,-1.52012c0.30715,-1.14681 -0.37338,-2.32551 -1.52012,-2.63291c-0.18882,-0.05145 -0.38379,-0.07688 -0.57949,-0.07559zM35.67236,112.8708c-0.359,0.00984 -0.70981,0.10946 -1.02041,0.28974c-1.02822,0.5928 -1.38158,1.90665 -0.78945,2.93526c0.2854,0.49421 0.75558,0.85467 1.30695,1.00197c0.55136,0.14729 1.13867,0.06933 1.63251,-0.21671c1.02669,-0.59424 1.37809,-1.90775 0.78525,-2.93525c-0.39336,-0.68186 -1.1279,-1.09423 -1.91484,-1.075zM136.16387,112.8792c-0.73127,0.03539 -1.39427,0.44047 -1.75947,1.075c-0.59284,1.0275 -0.24144,2.34101 0.78525,2.93526c0.49384,0.28604 1.08114,0.36401 1.63251,0.21671c0.55136,-0.14729 1.02155,-0.50776 1.30695,-1.00197c0.28569,-0.49435 0.36302,-1.08204 0.21492,-1.63346c-0.1481,-0.55142 -0.50945,-1.02129 -1.00437,-1.30599c-0.35651,-0.20578 -0.7646,-0.30488 -1.17578,-0.28555zM44.98203,124.89736c-0.58035,-0.00779 -1.1392,0.21938 -1.54951,0.62988c-0.83941,0.83959 -0.83941,2.20064 0,3.04023c0.83959,0.83941 2.20064,0.83941 3.04023,0c0.83941,-0.83959 0.83941,-2.20064 0,-3.04023c-0.39591,-0.3961 -0.93074,-0.62209 -1.49072,-0.62988zM127.07676,124.89736c-0.5818,-0.00894 -1.14238,0.21833 -1.55371,0.62988c-0.83941,0.83959 -0.83941,2.20064 0,3.04023c0.83959,0.83941 2.20065,0.83941 3.04024,0c0.83941,-0.83959 0.83941,-2.20064 0,-3.04023c-0.39487,-0.39509 -0.928,-0.621 -1.48652,-0.62988zM86,131.15c-1.18741,0 -2.15,0.96259 -2.15,2.15c0,1.18741 0.96259,2.15 2.15,2.15c1.18741,0 2.15,-0.96259 2.15,-2.15c0,-1.18741 -0.96259,-2.15 -2.15,-2.15zM114.97041,134.11885c-0.36006,0.00786 -0.71238,0.10605 -1.02461,0.28555c-0.49492,0.2847 -0.85628,0.75457 -1.00437,1.30599c-0.1481,0.55142 -0.07077,1.13911 0.21492,1.63346c0.2854,0.49421 0.75558,0.85467 1.30695,1.00197c0.55136,0.14729 1.13867,0.06933 1.63251,-0.21671c1.02669,-0.59424 1.37809,-1.90775 0.78525,-2.93526c-0.39263,-0.68051 -1.12519,-1.09268 -1.91064,-1.075zM56.86582,134.12725c-0.73043,0.0345 -1.39324,0.43788 -1.75947,1.0708c-0.28604,0.49384 -0.36401,1.08114 -0.21671,1.63251c0.14729,0.55136 0.50776,1.02155 1.00197,1.30695c0.49435,0.28569 1.08204,0.36302 1.63346,0.21492c0.55142,-0.1481 1.02129,-0.50945 1.30599,-1.00437c0.59213,-1.0286 0.23876,-2.34245 -0.78945,-2.93525c-0.35651,-0.20578 -0.7646,-0.30488 -1.17578,-0.28555zM86,139.75c-2.37482,0 -4.3,1.92518 -4.3,4.3c0,2.37482 1.92518,4.3 4.3,4.3c2.37482,0 4.3,-1.92518 4.3,-4.3c0,-2.37482 -1.92518,-4.3 -4.3,-4.3zM70.95,139.92217c-0.9666,0.00887 -1.80845,0.66173 -2.05762,1.5957c-0.30715,1.14681 0.37338,2.32551 1.52012,2.63291c1.14681,0.30715 2.32551,-0.37338 2.63291,-1.52012c0.30715,-1.14681 -0.37338,-2.32551 -1.52012,-2.63291c-0.18747,-0.05107 -0.38099,-0.0765 -0.57529,-0.07559zM101.10039,139.92217c-0.21514,-0.0083 -0.4303,0.01577 -0.63828,0.07139c-1.14674,0.3074 -1.82727,1.4861 -1.52012,2.63291c0.3074,1.14674 1.4861,1.82727 2.63291,1.52012c1.14674,-0.3074 1.82727,-1.4861 1.52012,-2.63291c-0.24415,-0.91036 -1.05278,-1.55556 -1.99463,-1.5915z"></path></g></g></svg>